<svg width="6" height="20" viewBox="0 0 6 20" fill="none" xmlns="http://www.w3.org/2000/svg">
<path d="M5.08417 17.5278C5.08417 18.1245 4.84712 18.6968 4.42516 19.1188C4.0032 19.5407 3.4309 19.7778 2.83417 19.7778C2.23743 19.7778 1.66513 19.5407 1.24318 19.1188C0.82122 18.6968 0.584167 18.1245 0.584167 17.5278C0.584167 16.931 0.82122 16.3587 1.24318 15.9368C1.66513 15.5148 2.23743 15.2778 2.83417 15.2778C3.4309 15.2778 4.0032 15.5148 4.42516 15.9368C4.84712 16.3587 5.08417 16.931 5.08417 17.5278ZM5.08417 10.0278C5.08417 10.6245 4.84712 11.1968 4.42516 11.6188C4.0032 12.0407 3.4309 12.2778 2.83417 12.2778C2.23743 12.2778 1.66513 12.0407 1.24318 11.6188C0.82122 11.1968 0.584167 10.6245 0.584167 10.0278C0.584167 9.43103 0.82122 8.85874 1.24318 8.43678C1.66513 8.01482 2.23743 7.77777 2.83417 7.77777C3.4309 7.77777 4.0032 8.01482 4.42516 8.43678C4.84712 8.85874 5.08417 9.43103 5.08417 10.0278ZM5.08417 2.52777C5.08417 3.12451 4.84712 3.6968 4.42516 4.11876C4.0032 4.54072 3.4309 4.77777 2.83417 4.77777C2.23743 4.77777 1.66513 4.54072 1.24318 4.11876C0.82122 3.6968 0.584167 3.12451 0.584167 2.52777C0.584167 1.93103 0.82122 1.35874 1.24318 0.936781C1.66513 0.514824 2.23743 0.277771 2.83417 0.277771C3.4309 0.277771 4.0032 0.514824 4.42516 0.936781C4.84712 1.35874 5.08417 1.93103 5.08417 2.52777Z" fill="black" fill-opacity="0.87"/>
</svg>
