<svg width="24" height="24" viewBox="0 0 24 24" fill="none" xmlns="http://www.w3.org/2000/svg">
<path d="M11.9997 7.13075C11.3603 7.13075 10.7272 7.25669 10.1365 7.50138C9.54572 7.74607 9.00896 8.10472 8.55683 8.55685C8.10471 9.00898 7.74606 9.54573 7.50137 10.1365C7.25668 10.7272 7.13074 11.3603 7.13074 11.9998C7.13074 12.6392 7.25668 13.2723 7.50137 13.863C7.74606 14.4538 8.10471 14.9905 8.55683 15.4427C9.00896 15.8948 9.54572 16.2534 10.1365 16.4981C10.7272 16.7428 11.3603 16.8688 11.9997 16.8688C13.2911 16.8688 14.5295 16.3558 15.4426 15.4427C16.3558 14.5295 16.8687 13.2911 16.8687 11.9998C16.8687 10.7084 16.3558 9.46996 15.4426 8.55685C14.5295 7.64374 13.2911 7.13075 11.9997 7.13075ZM8.63074 11.9998C8.63074 11.1062 8.98568 10.2493 9.61749 9.61751C10.2493 8.9857 11.1062 8.63075 11.9997 8.63075C12.8933 8.63075 13.7502 8.9857 14.382 9.61751C15.0138 10.2493 15.3687 11.1062 15.3687 11.9998C15.3687 12.8933 15.0138 13.7502 14.382 14.382C13.7502 15.0138 12.8933 15.3688 11.9997 15.3688C11.1062 15.3688 10.2493 15.0138 9.61749 14.382C8.98568 13.7502 8.63074 12.8933 8.63074 11.9998Z" fill="black" fill-opacity="0.87"/>
<path d="M14.6937 2.01425C13.9032 -0.670746 10.0962 -0.670746 9.30574 2.01425L9.16474 2.49275C9.10953 2.68018 9.01308 2.85288 8.88246 2.99819C8.75184 3.1435 8.59036 3.25774 8.40985 3.33253C8.22934 3.40732 8.03438 3.44077 7.83927 3.43043C7.64415 3.42009 7.45383 3.36621 7.28224 3.27275L6.84424 3.03275C4.38424 1.69475 1.69474 4.38575 3.03424 6.84425L3.27274 7.28225C3.3662 7.45384 3.42007 7.64417 3.43041 7.83928C3.44076 8.0344 3.40731 8.22936 3.33252 8.40986C3.25772 8.59037 3.14349 8.75186 2.99818 8.88248C2.85287 9.0131 2.68017 9.10955 2.49274 9.16475L2.01424 9.30575C-0.670762 10.0963 -0.670762 13.9033 2.01424 14.6938L2.49274 14.8348C2.68017 14.89 2.85287 14.9864 2.99818 15.117C3.14349 15.2476 3.25772 15.4091 3.33252 15.5896C3.40731 15.7701 3.44076 15.9651 3.43041 16.1602C3.42007 16.3553 3.3662 16.5457 3.27274 16.7173L3.03274 17.1553C1.69474 19.6153 4.38424 22.3063 6.84424 20.9653L7.28224 20.7268C7.45383 20.6333 7.64415 20.5794 7.83927 20.5691C8.03438 20.5587 8.22934 20.5922 8.40985 20.667C8.59036 20.7418 8.75184 20.856 8.88246 21.0013C9.01308 21.1466 9.10953 21.3193 9.16474 21.5068L9.30574 21.9853C10.0962 24.6702 13.9032 24.6702 14.6937 21.9853L14.8347 21.5068C14.8899 21.3193 14.9864 21.1466 15.117 21.0013C15.2476 20.856 15.4091 20.7418 15.5896 20.667C15.7701 20.5922 15.9651 20.5587 16.1602 20.5691C16.3553 20.5794 16.5457 20.6333 16.7172 20.7268L17.1552 20.9668C19.6152 22.3063 22.3062 19.6138 20.9652 17.1553L20.7267 16.7173C20.6333 16.5457 20.5794 16.3553 20.5691 16.1602C20.5587 15.9651 20.5922 15.7701 20.667 15.5896C20.7418 15.4091 20.856 15.2476 21.0013 15.117C21.1466 14.9864 21.3193 14.89 21.5067 14.8348L21.9852 14.6938C24.6702 13.9033 24.6702 10.0963 21.9852 9.30575L21.5067 9.16475C21.3193 9.10955 21.1466 9.0131 21.0013 8.88248C20.856 8.75186 20.7418 8.59037 20.667 8.40986C20.5922 8.22936 20.5587 8.0344 20.5691 7.83928C20.5794 7.64417 20.6333 7.45384 20.7267 7.28225L20.9667 6.84425C22.3062 4.38425 19.6137 1.69475 17.1552 3.03425L16.7172 3.27275C16.5457 3.36621 16.3553 3.42009 16.1602 3.43043C15.9651 3.44077 15.7701 3.40732 15.5896 3.33253C15.4091 3.25774 15.2476 3.1435 15.117 2.99819C14.9864 2.85288 14.8899 2.68018 14.8347 2.49275L14.6937 2.01425ZM10.7442 2.43875C11.1132 1.18625 12.8862 1.18625 13.2552 2.43875L13.3962 2.91725C13.5148 3.31938 13.7218 3.68988 14.0021 4.0016C14.2825 4.31332 14.629 4.55835 15.0164 4.71872C15.4037 4.8791 15.822 4.95075 16.2407 4.92844C16.6593 4.90612 17.0676 4.7904 17.4357 4.58975L17.8722 4.34975C19.0182 3.72725 20.2722 4.97975 19.6482 6.12725L19.4097 6.56525C19.2094 6.93339 19.094 7.34169 19.0719 7.76024C19.0498 8.17878 19.1217 8.59696 19.2822 8.98413C19.4427 9.3713 19.6878 9.71766 19.9995 9.99782C20.3112 10.278 20.6817 10.4848 21.0837 10.6033L21.5607 10.7443C22.8132 11.1133 22.8132 12.8863 21.5607 13.2553L21.0822 13.3963C20.6801 13.5148 20.3096 13.7218 19.9979 14.0021C19.6862 14.2825 19.4411 14.629 19.2808 15.0164C19.1204 15.4037 19.0487 15.822 19.0711 16.2407C19.0934 16.6593 19.2091 17.0677 19.4097 17.4358L19.6497 17.8723C20.2722 19.0183 19.0197 20.2723 17.8722 19.6483L17.4357 19.4098C17.0675 19.2091 16.6591 19.0935 16.2404 19.0712C15.8217 19.049 15.4033 19.1208 15.0159 19.2813C14.6285 19.4419 14.282 19.6871 14.0018 19.9989C13.7215 20.3108 13.5146 20.6815 13.3962 21.0838L13.2552 21.5608C12.8862 22.8133 11.1132 22.8133 10.7442 21.5608L10.6032 21.0823C10.4847 20.6803 10.2777 20.31 9.99743 19.9985C9.7172 19.6869 9.37082 19.442 8.98367 19.2816C8.59652 19.1213 8.1784 19.0496 7.75994 19.0717C7.34148 19.0939 6.93328 19.2094 6.56524 19.4098L6.12724 19.6498C4.98124 20.2723 3.72724 19.0198 4.35124 17.8723L4.58974 17.4358C4.79067 17.0676 4.90661 16.6591 4.92908 16.2403C4.95154 15.8215 4.87995 15.403 4.71955 15.0154C4.55916 14.6279 4.31403 14.2812 4.00216 14.0007C3.69028 13.7203 3.31958 13.5132 2.91724 13.3948L2.43874 13.2538C1.18624 12.8848 1.18624 11.1118 2.43874 10.7428L2.91724 10.6018C3.31895 10.4831 3.68905 10.2762 4.00045 9.99603C4.31186 9.71591 4.55668 9.36969 4.71702 8.98274C4.87735 8.59578 4.94913 8.17786 4.92711 7.75958C4.90509 7.3413 4.78982 6.93324 4.58974 6.56525L4.34974 6.12725C3.72724 4.98125 4.97974 3.72725 6.12724 4.35125L6.56524 4.58975C6.93328 4.79012 7.34148 4.90561 7.75994 4.92778C8.1784 4.94995 8.59652 4.87823 8.98367 4.71788C9.37082 4.55752 9.7172 4.3126 9.99743 4.00103C10.2777 3.68947 10.4847 3.31917 10.6032 2.91725L10.7442 2.43875Z" fill="black" fill-opacity="0.87"/>
</svg>
