<svg width="24" height="24" viewBox="0 0 24 24" fill="none" xmlns="http://www.w3.org/2000/svg">
<path d="M0 0.75C0 0.551088 0.0790176 0.360322 0.21967 0.21967C0.360322 0.0790176 0.551088 0 0.75 0H5.25C5.44891 0 5.63968 0.0790176 5.78033 0.21967C5.92098 0.360322 6 0.551088 6 0.75C6 0.948912 5.92098 1.13968 5.78033 1.28033C5.63968 1.42098 5.44891 1.5 5.25 1.5H1.5V5.25C1.5 5.44891 1.42098 5.63968 1.28033 5.78033C1.13968 5.92098 0.948912 6 0.75 6C0.551088 6 0.360322 5.92098 0.21967 5.78033C0.0790176 5.63968 0 5.44891 0 5.25V0.75Z" fill="url(#paint0_linear_721_172)"/>
<path d="M18 0.75C18 0.551088 18.079 0.360322 18.2197 0.21967C18.3603 0.0790176 18.5511 0 18.75 0H23.25C23.4489 0 23.6397 0.0790176 23.7803 0.21967C23.921 0.360322 24 0.551088 24 0.75V5.25C24 5.44891 23.921 5.63968 23.7803 5.78033C23.6397 5.92098 23.4489 6 23.25 6C23.0511 6 22.8603 5.92098 22.7197 5.78033C22.579 5.63968 22.5 5.44891 22.5 5.25V1.5H18.75C18.5511 1.5 18.3603 1.42098 18.2197 1.28033C18.079 1.13968 18 0.948912 18 0.75Z" fill="url(#paint1_linear_721_172)"/>
<path d="M0.75 18C0.948912 18 1.13968 18.079 1.28033 18.2197C1.42098 18.3603 1.5 18.5511 1.5 18.75V22.5H5.25C5.44891 22.5 5.63968 22.579 5.78033 22.7197C5.92098 22.8603 6 23.0511 6 23.25C6 23.4489 5.92098 23.6397 5.78033 23.7803C5.63968 23.921 5.44891 24 5.25 24H0.75C0.551088 24 0.360322 23.921 0.21967 23.7803C0.0790176 23.6397 0 23.4489 0 23.25V18.75C0 18.5511 0.0790176 18.3603 0.21967 18.2197C0.360322 18.079 0.551088 18 0.75 18Z" fill="url(#paint2_linear_721_172)"/>
<path d="M23.25 18C23.4489 18 23.6397 18.079 23.7803 18.2197C23.921 18.3603 24 18.5511 24 18.75V23.25C24 23.4489 23.921 23.6397 23.7803 23.7803C23.6397 23.921 23.4489 24 23.25 24H18.75C18.5511 24 18.3603 23.921 18.2197 23.7803C18.079 23.6397 18 23.4489 18 23.25C18 23.0511 18.079 22.8603 18.2197 22.7197C18.3603 22.579 18.5511 22.5 18.75 22.5H22.5V18.75C22.5 18.5511 22.579 18.3603 22.7197 18.2197C22.8603 18.079 23.0511 18 23.25 18Z" fill="url(#paint3_linear_721_172)"/>
<path d="M6 6H7.5V7.5H6V6Z" fill="url(#paint4_linear_721_172)"/>
<path fill-rule="evenodd" clip-rule="evenodd" d="M10.5 3H3V10.5H10.5V3ZM4.5 4.5H9V9H4.5V4.5Z" fill="url(#paint5_linear_721_172)"/>
<path d="M7.5 16.5H6V18H7.5V16.5Z" fill="url(#paint6_linear_721_172)"/>
<path fill-rule="evenodd" clip-rule="evenodd" d="M3 13.5H10.5V21H3V13.5ZM9 15H4.5V19.5H9V15Z" fill="url(#paint7_linear_721_172)"/>
<path d="M18 6H16.5V7.5H18V6Z" fill="url(#paint8_linear_721_172)"/>
<path fill-rule="evenodd" clip-rule="evenodd" d="M13.5 3H21V10.5H13.5V3ZM15 4.5V9H19.5V4.5H15Z" fill="url(#paint9_linear_721_172)"/>
<path fill-rule="evenodd" clip-rule="evenodd" d="M12 15H13.5V16.5H12V18H15V15H16.5V18H18V16.5H21V15H16.5V12H12V15ZM15 15H13.5V13.5H15V15Z" fill="url(#paint10_linear_721_172)"/>
<path d="M21 18H19.5V19.5H16.5V21H21V18Z" fill="url(#paint11_linear_721_172)"/>
<path d="M15 21V19.5H12V21H15Z" fill="url(#paint12_linear_721_172)"/>
<path d="M21 13.5H18V12H21V13.5Z" fill="url(#paint13_linear_721_172)"/>
<defs>
<linearGradient id="paint0_linear_721_172" x1="0" y1="12.913" x2="24" y2="12.913" gradientUnits="userSpaceOnUse">
<stop stop-color="#2196F3"/>
<stop offset="1" stop-color="#003CFC"/>
</linearGradient>
<linearGradient id="paint1_linear_721_172" x1="0" y1="12.913" x2="24" y2="12.913" gradientUnits="userSpaceOnUse">
<stop stop-color="#2196F3"/>
<stop offset="1" stop-color="#003CFC"/>
</linearGradient>
<linearGradient id="paint2_linear_721_172" x1="0" y1="12.913" x2="24" y2="12.913" gradientUnits="userSpaceOnUse">
<stop stop-color="#2196F3"/>
<stop offset="1" stop-color="#003CFC"/>
</linearGradient>
<linearGradient id="paint3_linear_721_172" x1="0" y1="12.913" x2="24" y2="12.913" gradientUnits="userSpaceOnUse">
<stop stop-color="#2196F3"/>
<stop offset="1" stop-color="#003CFC"/>
</linearGradient>
<linearGradient id="paint4_linear_721_172" x1="0" y1="12.913" x2="24" y2="12.913" gradientUnits="userSpaceOnUse">
<stop stop-color="#2196F3"/>
<stop offset="1" stop-color="#003CFC"/>
</linearGradient>
<linearGradient id="paint5_linear_721_172" x1="0" y1="12.913" x2="24" y2="12.913" gradientUnits="userSpaceOnUse">
<stop stop-color="#2196F3"/>
<stop offset="1" stop-color="#003CFC"/>
</linearGradient>
<linearGradient id="paint6_linear_721_172" x1="0" y1="12.913" x2="24" y2="12.913" gradientUnits="userSpaceOnUse">
<stop stop-color="#2196F3"/>
<stop offset="1" stop-color="#003CFC"/>
</linearGradient>
<linearGradient id="paint7_linear_721_172" x1="0" y1="12.913" x2="24" y2="12.913" gradientUnits="userSpaceOnUse">
<stop stop-color="#2196F3"/>
<stop offset="1" stop-color="#003CFC"/>
</linearGradient>
<linearGradient id="paint8_linear_721_172" x1="0" y1="12.913" x2="24" y2="12.913" gradientUnits="userSpaceOnUse">
<stop stop-color="#2196F3"/>
<stop offset="1" stop-color="#003CFC"/>
</linearGradient>
<linearGradient id="paint9_linear_721_172" x1="0" y1="12.913" x2="24" y2="12.913" gradientUnits="userSpaceOnUse">
<stop stop-color="#2196F3"/>
<stop offset="1" stop-color="#003CFC"/>
</linearGradient>
<linearGradient id="paint10_linear_721_172" x1="0" y1="12.913" x2="24" y2="12.913" gradientUnits="userSpaceOnUse">
<stop stop-color="#2196F3"/>
<stop offset="1" stop-color="#003CFC"/>
</linearGradient>
<linearGradient id="paint11_linear_721_172" x1="0" y1="12.913" x2="24" y2="12.913" gradientUnits="userSpaceOnUse">
<stop stop-color="#2196F3"/>
<stop offset="1" stop-color="#003CFC"/>
</linearGradient>
<linearGradient id="paint12_linear_721_172" x1="0" y1="12.913" x2="24" y2="12.913" gradientUnits="userSpaceOnUse">
<stop stop-color="#2196F3"/>
<stop offset="1" stop-color="#003CFC"/>
</linearGradient>
<linearGradient id="paint13_linear_721_172" x1="0" y1="12.913" x2="24" y2="12.913" gradientUnits="userSpaceOnUse">
<stop stop-color="#2196F3"/>
<stop offset="1" stop-color="#003CFC"/>
</linearGradient>
</defs>
</svg>
